<?xml version="1.0" encoding="iso-8859-1"?>
<!-- Generator: Adobe Illustrator 19.0.0, SVG Export Plug-In . SVG Version: 6.00 Build 0)  -->
<svg version="1.1" id="Capa_1" xmlns="http://www.w3.org/2000/svg" xmlns:xlink="http://www.w3.org/1999/xlink" x="0px" y="0px"
	 viewBox="0 0 511.998 511.998" style="enable-background:new 0 0 511.998 511.998;" xml:space="preserve">
<path style="fill:#FEDB41;" d="M506.804,189.815c-17.999-55.199-77.401-88.199-132.299-70.5c-7.202,2.401-14.702,5.7-21.901,9.6
	c1.5-8.101,2.401-16.199,2.401-23.699c0-57.9-41.1-105-99-105s-99.013,47.1-99.013,105c0,7.5,0.901,15.599,2.401,23.699
	c-7.2-3.9-14.7-7.2-21.901-9.6c-54.899-17.699-114.3,15.301-132.299,70.5c-17.999,55.201,12.299,114.3,67.5,132.301
	c7.2,2.399,15,3.9,23.399,5.099c-5.999,5.7-11.398,11.7-15.899,17.701c-34.2,47.098-23.699,112.5,23.101,146.699
	c47.1,34.501,106.812,23.401,140.712-23.099c4.501-6.301,8.401-13.2,12.001-20.7c3.6,7.5,7.5,14.399,12.001,20.7
	c34.199,46.8,93.899,57.299,140.699,23.099c47.1-34.199,57.301-99.6,23.101-146.699c-4.501-6-9.901-12.001-15.899-17.701
	c8.399-1.199,16.199-2.701,23.399-5.099C494.505,304.115,524.804,245.016,506.804,189.815z"/>
<path style="fill:#FFCC33;" d="M439.304,322.116c-7.2,2.399-15,3.9-23.399,5.099c5.999,5.7,11.398,11.7,15.899,17.701
	c34.2,47.098,24,112.5-23.101,146.699c-46.8,34.2-106.5,23.701-140.699-23.099c-4.501-6.301-8.401-13.2-12.001-20.7V0.216
	c57.9,0,99,47.1,99,105c0,7.5-0.901,15.599-2.401,23.699c7.2-3.9,14.7-7.2,21.901-9.6c54.899-17.699,114.3,15.301,132.299,70.5
	C524.804,245.016,494.505,304.115,439.304,322.116z"/>
<g>
	<path style="fill:#FEA832;" d="M256.005,198.216c-41.4,0-75,33.6-75,75s33.6,75,75,75s75-33.6,75-75
		S297.405,198.216,256.005,198.216z"/>
	<path style="fill:#FEA832;" d="M271.005,138.216v75c0,9.899-7.5,15-15,15c-7.5,0-15-5.101-15-15v-75c0-9.901,7.5-15,15-15
		C263.505,123.216,271.005,128.315,271.005,138.216z"/>
	<path style="fill:#FEA832;" d="M194.305,268.938l-71.323-23.174c-18.921-6.155-9.499-34.671,9.258-28.535l71.323,23.174
		C222.32,246.504,213.224,275.064,194.305,268.938z"/>
	<path style="fill:#FEA832;" d="M164.525,373.616l44.077-60.674c11.524-16.029,35.963,1.538,24.258,17.637l-44.077,60.674
		C177.175,407.272,152.844,389.682,164.525,373.616z"/>
</g>
<g>
	<path style="fill:#FE9923;" d="M323.226,391.253l-44.077-60.674c-11.681-16.066,12.631-33.642,24.258-17.637l44.077,60.674
		C359.29,389.854,334.664,407.037,323.226,391.253z"/>
	<path style="fill:#FE9923;" d="M308.446,240.403l71.323-23.174c18.641-6.167,28.255,22.356,9.258,28.535l-71.323,23.174
		C298.785,275.064,289.689,246.504,308.446,240.403z"/>
	<path style="fill:#FE9923;" d="M271.005,138.216v75c0,9.899-7.5,15-15,15v-105C263.505,123.216,271.005,128.315,271.005,138.216z"
		/>
	<path style="fill:#FE9923;" d="M331.005,273.216c0,41.4-33.6,75-75,75v-150C297.405,198.216,331.005,231.816,331.005,273.216z"/>
</g>
<g>
</g>
<g>
</g>
<g>
</g>
<g>
</g>
<g>
</g>
<g>
</g>
<g>
</g>
<g>
</g>
<g>
</g>
<g>
</g>
<g>
</g>
<g>
</g>
<g>
</g>
<g>
</g>
<g>
</g>
</svg>
